<?xml version="1.0" encoding="UTF-8" standalone="no"?>
<!-- Created with Inkscape (http://www.inkscape.org/) -->

<svg
   version="1.1"
   id="svg1"
   width="3684.7419"
   height="800.00006"
   viewBox="0 0 3684.7419 800.00006"
   sodipodi:docname="underconstruction.svg"
   inkscape:version="1.3.2 (091e20e, 2023-11-25, custom)"
   inkscape:export-filename="..\..\Websites\test-website\Images\underconstruction.svg"
   inkscape:export-xdpi="96"
   inkscape:export-ydpi="96"
   xmlns:inkscape="http://www.inkscape.org/namespaces/inkscape"
   xmlns:sodipodi="http://sodipodi.sourceforge.net/DTD/sodipodi-0.dtd"
   xmlns="http://www.w3.org/2000/svg"
   xmlns:svg="http://www.w3.org/2000/svg">
  <defs
     id="defs1" />
  <sodipodi:namedview
     id="namedview1"
     pagecolor="#ffda1a"
     bordercolor="#000000"
     borderopacity="0.25"
     inkscape:showpageshadow="2"
     inkscape:pageopacity="0.0"
     inkscape:pagecheckerboard="0"
     inkscape:deskcolor="#d1d1d1"
     showgrid="false"
     showguides="false"
     inkscape:zoom="0.1767767"
     inkscape:cx="1745.1395"
     inkscape:cy="472.34733"
     inkscape:window-width="1920"
     inkscape:window-height="991"
     inkscape:window-x="-9"
     inkscape:window-y="-9"
     inkscape:window-maximized="1"
     inkscape:current-layer="g1"
     inkscape:export-bgcolor="#ffda1aff">
    <sodipodi:guide
       position="504.5045,283.91248"
       orientation="0,-1"
       id="guide32"
       inkscape:locked="false" />
    <inkscape:grid
       id="grid2"
       units="px"
       originx="0"
       originy="2.2737368e-13"
       spacingx="1"
       spacingy="1"
       empcolor="#0099e5"
       empopacity="0.30196078"
       color="#0099e5"
       opacity="0.14901961"
       empspacing="5"
       dotted="false"
       gridanglex="30"
       gridanglez="30"
       visible="false" />
  </sodipodi:namedview>
  <g
     inkscape:groupmode="layer"
     inkscape:label="Image"
     id="g1">
    <rect
       style="fill:#ffcf0d;fill-opacity:1;stroke:#000000;stroke-width:0;stroke-dasharray:none;stroke-opacity:1"
       id="rect3"
       width="3684.7419"
       height="800"
       x="-3684.7419"
       y="0"
       transform="scale(-1,1)" />
    <path
       id="rect2"
       style="fill:#000000;fill-opacity:1;stroke-width:47.0755"
       d="m 0,0 192.5913,192.5913 v -385.1826 z m 392.59066,-392.59066 v 282.84272 l 200.00073,-200.00074 v -282.84271 z m 400.00008,-400.00008 v 282.84271 l 200.00074,-200.00073 v -282.84272 z m 400.00146,-400.00146 v 282.8427 l 199.9994,-199.9994 v -282.8427 z m 400.0001,-400.0001 v 282.8427 l 199.9993,-199.9993 v -282.8427 z m 400.0001,-400.0001 v 282.8427 l 199.9993,-199.9993 v -282.8427 z m 399.9987,-399.9987 v 282.8427 l 200.0007,-200.0007 v -282.8427 z m 400.0015,-25.8287 v 282.8427 l 95.7563,95.7563 -95.7563,95.7564 v 282.8427 l 199.9993,-199.9994 v -357.1994 z M 392.59066,109.74794 v 282.84272 l 173.09476,173.09476 26.90597,-26.90596 V 255.93675 l -26.90597,26.90596 z M 792.59074,55.937394 V 338.78011 L 992.59148,138.77937 V -144.06334 Z M 1192.5922,-344.06407 v 282.84271 l 199.9994,-199.99935 v -282.84272 z m 400.0001,-400.00009 v 282.84271 l 199.9993,-199.99935 v -282.84271 z m 400.0001,-400.00004 v 282.84267 l 199.9993,-199.99937 v -282.8427 z m 399.9987,-399.9988 v 282.8428 l 200.0007,-200.0008 v -282.8427 z"
       transform="rotate(45)" />
    <text
       xml:space="preserve"
       style="font-weight:bold;font-size:262.564px;font-family:Helvetica;-inkscape-font-specification:'Helvetica, Bold';fill:#f4b200;stroke-width:14.1711"
       x="280"
       y="494.7435"
       id="text1"><tspan
         sodipodi:role="line"
         id="tspan1"
         x="280"
         y="494.7435"
         style="fill:#000000;fill-opacity:1;stroke-width:14.1711">UNDER CONSTRUCTION</tspan></text>
    <rect
       style="fill:none;stroke:#000000;stroke-width:35;stroke-dasharray:none;stroke-opacity:1"
       id="rect1"
       width="3284.7419"
       height="400"
       x="200"
       y="200" />
  </g>
</svg>
